PathFileType	4	(X/Y/Z)	c:/Users/goper/Files/vsCode/490R/osim_files/C07/C07_Slow_01.trc
DataRate	CameraRate	NumFrames	NumMarkers	Units                	OrigDataRate	OrigDataStartFrame	OrigNumFrames
250.00	250.00	11	36	mm	250.0	2716	3103
                Frame#	Time	LPSIS			LASIS			LTH1			LTH2			LTH3			LTH4			LLFE			LMFE			LSH1			LSH2			LSH3			LSH4			LLMAL			LMMAL			LCAL			LMTP5			LTOE			LMTP1			RPSIS			RASIS			RTH1			RTH2			RTH3			RTH4			RLFE			RMFE			RSH1			RSH2			RSH3			RSH4			RLMAL			RMMAL			RCAL			RMTP1			RTOE			RMTP5		
		X1	Y1	Z1	X2	Y2	Z2	X3	Y3	Z3	X4	Y4	Z4	X5	Y5	Z5	X6	Y6	Z6	X7	Y7	Z7	X8	Y8	Z8	X9	Y9	Z9	X10	Y10	Z10	X11	Y11	Z11	X12	Y12	Z12	X13	Y13	Z13	X14	Y14	Z14	X15	Y15	Z15	X16	Y16	Z16	X17	Y17	Z17	X18	Y18	Z18	X19	Y19	Z19	X20	Y20	Z20	X21	Y21	Z21	X22	Y22	Z22	X23	Y23	Z23	X24	Y24	Z24	X25	Y25	Z25	X26	Y26	Z26	X27	Y27	Z27	X28	Y28	Z28	X29	Y29	Z29	X30	Y30	Z30	X31	Y31	Z31	X32	Y32	Z32	X33	Y33	Z33	X34	Y34	Z34	X35	Y35	Z35	X36	Y36	Z36

2716	10.86000	0.00000	0.00000	0.00000	-2591.86670	627.49817	710.02338	0.00000	0.00000	0.00000	0.00000	0.00000	0.00000	0.00000	0.00000	0.00000	-2687.47144	745.51575	1005.47571	0.00000	0.00000	0.00000	-2784.68066	95.27941	868.23822	0.00000	0.00000	0.00000	0.00000	0.00000	0.00000	-2684.44556	361.28140	708.31610	-2700.67944	352.54239	668.11908	-2862.86694	237.38652	651.70667	0.00000	0.00000	0.00000	-2953.34351	248.61725	655.09955	-2857.26782	78.35626	674.44550	-2838.80884	63.09706	749.29529	-2882.95410	95.67439	778.77832	-2713.96631	28.31166	1008.38135	0.00000	0.00000	0.00000	0.00000	0.00000	0.00000	0.00000	0.00000	0.00000	-2588.31323	512.99731	733.08069	0.00000	0.00000	0.00000	-2773.07837	489.79102	981.43634	-2750.34424	493.66837	867.83160	0.00000	0.00000	0.00000	-2813.67993	261.00433	987.80774	0.00000	0.00000	0.00000	-2782.55688	264.91470	988.59186	-2833.58691	88.34509	936.48511	0.00000	0.00000	0.00000	-2865.66382	36.93385	871.69769	-2650.59570	42.26399	968.05902	-2657.09912	30.38424	915.68256	0.00000	0.00000	0.00000
2717	10.86400	0.00000	0.00000	0.00000	-2587.88818	628.62463	711.10211	0.00000	0.00000	0.00000	0.00000	0.00000	0.00000	0.00000	0.00000	0.00000	-2684.98218	745.00775	1006.50751	0.00000	0.00000	0.00000	-2784.51587	95.33559	868.18744	0.00000	0.00000	0.00000	0.00000	0.00000	0.00000	-2680.16772	362.72086	710.24103	-2695.56909	353.38882	670.78564	-2858.03320	237.94766	655.50165	0.00000	0.00000	0.00000	-2948.61646	247.83540	660.96814	0.00000	0.00000	0.00000	-2829.04736	63.40754	750.46948	-2873.10303	94.25386	780.79773	-2713.91333	28.29972	1008.36816	0.00000	0.00000	0.00000	0.00000	0.00000	0.00000	0.00000	0.00000	0.00000	-2583.51831	514.32062	734.42542	0.00000	0.00000	0.00000	-2771.17261	489.62653	982.02405	-2748.53955	493.68787	868.28381	0.00000	0.00000	0.00000	-2812.80200	261.05121	988.04004	0.00000	0.00000	0.00000	-2781.70288	264.81250	988.78827	-2833.41650	88.46195	936.48920	0.00000	0.00000	0.00000	-2865.64941	36.97688	871.67847	-2650.48120	42.18043	968.09521	-2657.09717	30.35213	915.67773	0.00000	0.00000	0.00000
2718	10.86800	0.00000	0.00000	0.00000	-2583.89233	629.73706	712.06500	0.00000	0.00000	0.00000	0.00000	0.00000	0.00000	0.00000	0.00000	0.00000	-2682.63159	744.64728	1007.45764	0.00000	0.00000	0.00000	-2784.37427	95.38187	868.14435	0.00000	0.00000	0.00000	0.00000	0.00000	0.00000	-2654.55469	372.19739	698.63519	-2690.61548	354.08286	673.51068	-2853.15039	238.22879	659.32477	0.00000	0.00000	0.00000	-2944.13428	246.76636	666.94543	-2840.89819	80.14317	676.95862	-2819.42285	63.21711	751.50739	-2863.08496	92.73270	782.74298	-2713.84570	28.24891	1008.33020	0.00000	0.00000	0.00000	0.00000	0.00000	0.00000	0.00000	0.00000	0.00000	-2578.94653	515.66815	735.69806	0.00000	0.00000	0.00000	-2769.35352	489.54605	982.51453	-2746.65698	493.66113	868.72021	0.00000	0.00000	0.00000	-2811.83228	261.08218	988.28333	0.00000	0.00000	0.00000	-2780.71875	264.73676	988.98376	-2828.73535	86.80465	935.80908	0.00000	0.00000	0.00000	-2865.57593	37.01314	871.68018	-2650.45044	42.08002	968.10254	-2657.05054	30.26255	915.66449	0.00000	0.00000	0.00000
2719	10.87200	0.00000	0.00000	0.00000	-2579.92456	630.92004	712.96960	0.00000	0.00000	0.00000	0.00000	0.00000	0.00000	0.00000	0.00000	0.00000	-2680.09961	744.17902	1008.23407	0.00000	0.00000	0.00000	-2784.12964	95.44099	868.06714	0.00000	0.00000	0.00000	0.00000	0.00000	0.00000	0.00000	0.00000	0.00000	-2685.46313	354.62921	676.22943	-2848.71118	238.56592	662.95032	0.00000	0.00000	0.00000	-2939.76904	245.31383	672.95453	0.00000	0.00000	0.00000	-2809.63330	63.08030	752.17377	-2852.89502	91.23383	784.57147	-2713.78882	28.23750	1008.31323	0.00000	0.00000	0.00000	0.00000	0.00000	0.00000	0.00000	0.00000	0.00000	-2574.30493	516.87848	736.90027	0.00000	0.00000	0.00000	-2767.43262	489.42047	983.07416	-2744.69385	493.62042	869.22467	0.00000	0.00000	0.00000	-2810.82764	261.15015	988.56104	0.00000	0.00000	0.00000	-2779.69922	264.67401	989.21002	-2828.56909	87.06381	935.81403	0.00000	0.00000	0.00000	-2866.46851	38.24534	871.85199	-2650.56152	42.13121	968.12299	-2657.04004	30.25766	915.64172	0.00000	0.00000	0.00000
2720	10.87600	0.00000	0.00000	0.00000	-2575.99243	632.12830	713.88837	0.00000	0.00000	0.00000	0.00000	0.00000	0.00000	0.00000	0.00000	0.00000	-2677.97949	743.66675	1009.34229	0.00000	0.00000	0.00000	-2781.75928	95.66691	866.82184	0.00000	0.00000	0.00000	0.00000	0.00000	0.00000	-2645.23901	374.92285	701.76825	-2680.50610	354.98773	678.98688	-2842.96460	238.40993	666.98492	0.00000	0.00000	0.00000	-2934.53174	243.87820	678.95868	0.00000	0.00000	0.00000	-2799.62842	62.85448	752.71289	-2842.85767	89.63599	786.39679	-2713.77881	28.22842	1008.31396	0.00000	0.00000	0.00000	0.00000	0.00000	0.00000	0.00000	0.00000	0.00000	-2569.84351	518.10345	738.11182	0.00000	0.00000	0.00000	-2765.48828	489.31821	983.66132	-2742.68311	493.53754	869.74634	0.00000	0.00000	0.00000	-2809.88647	261.29541	988.81921	0.00000	0.00000	0.00000	-2778.72559	264.59021	989.38605	-2828.30591	87.29125	935.81433	0.00000	0.00000	0.00000	-2865.43213	37.17185	871.66339	-2650.40967	41.96375	968.12701	-2656.35474	30.54639	915.50757	0.00000	0.00000	0.00000
2721	10.88000	0.00000	0.00000	0.00000	-2572.35083	633.53644	714.74652	0.00000	0.00000	0.00000	0.00000	0.00000	0.00000	0.00000	0.00000	0.00000	-2675.61646	743.42682	1010.19537	0.00000	0.00000	0.00000	-2782.63037	95.84814	867.01135	0.00000	0.00000	0.00000	0.00000	0.00000	0.00000	-2640.51245	375.93262	703.48193	-2675.43335	355.13629	681.79004	-2837.10889	237.98486	670.56659	0.00000	0.00000	0.00000	-2929.77930	241.93329	684.92200	0.00000	0.00000	0.00000	-2789.35010	62.78479	753.11346	-2829.81689	88.26971	787.09491	-2713.75391	28.24886	1008.28467	0.00000	0.00000	0.00000	0.00000	0.00000	0.00000	0.00000	0.00000	0.00000	-2565.52344	519.48029	739.29486	0.00000	0.00000	0.00000	-2763.52832	489.19836	984.14325	-2742.80591	495.04147	870.21503	0.00000	0.00000	0.00000	-2808.84668	261.37997	989.01630	0.00000	0.00000	0.00000	-2777.63013	264.56531	989.56030	-2832.57568	89.16332	936.59222	0.00000	0.00000	0.00000	-2865.39575	37.29008	871.65344	-2650.34644	41.95155	968.14246	-2656.32715	30.55076	915.47772	0.00000	0.00000	0.00000
2722	10.88400	0.00000	0.00000	0.00000	-2568.16675	634.62042	715.66565	0.00000	0.00000	0.00000	0.00000	0.00000	0.00000	0.00000	0.00000	0.00000	-2673.25732	742.96582	1010.94177	0.00000	0.00000	0.00000	-2781.97485	95.92749	866.85382	0.00000	0.00000	0.00000	0.00000	0.00000	0.00000	-2635.79492	376.94836	705.09027	-2670.49805	355.16312	684.55164	-2832.42676	237.67267	674.67407	0.00000	0.00000	0.00000	-2924.16016	239.98625	690.79260	-2807.62549	83.35506	681.09497	-2779.22534	62.55144	753.67303	-2819.46167	86.64209	788.78925	-2713.68530	28.27384	1008.28400	0.00000	0.00000	0.00000	0.00000	0.00000	0.00000	0.00000	0.00000	0.00000	-2561.32104	520.72205	740.46350	0.00000	0.00000	0.00000	-2761.53589	489.04684	984.67102	-2740.79663	494.97348	870.75104	-2833.44873	311.38351	981.67950	-2807.73047	261.40677	989.26770	0.00000	0.00000	0.00000	-2776.54663	264.43295	989.80054	-2832.27612	89.32291	936.60388	0.00000	0.00000	0.00000	-2865.31958	37.40807	871.66895	-2650.30469	41.88940	968.15021	-2656.27222	30.52396	915.45221	0.00000	0.00000	0.00000
2723	10.88800	0.00000	0.00000	0.00000	-2564.32886	635.88074	716.52161	0.00000	0.00000	0.00000	0.00000	0.00000	0.00000	0.00000	0.00000	0.00000	-2670.48853	742.76434	1011.53778	0.00000	0.00000	0.00000	-2781.25049	96.02879	866.74286	0.00000	0.00000	0.00000	0.00000	0.00000	0.00000	-2631.05811	377.73575	706.73175	-2665.47559	355.02823	687.36865	-2827.03809	236.99965	678.55548	0.00000	0.00000	0.00000	-2918.84668	237.69812	696.62457	-2799.49243	82.50164	683.34607	-2768.95337	62.37301	754.15662	-2809.17163	85.07178	790.42480	-2713.62280	28.24951	1008.25879	0.00000	0.00000	0.00000	0.00000	0.00000	0.00000	0.00000	0.00000	0.00000	-2557.17554	521.86078	741.50446	-2590.31128	509.82709	854.13464	-2759.58496	488.95319	985.15021	-2737.92358	494.57495	871.99622	-2832.12329	311.53311	982.00055	-2806.63672	261.47922	989.44641	0.00000	0.00000	0.00000	-2775.51904	264.39749	989.93811	-2831.98193	89.51382	936.62646	0.00000	0.00000	0.00000	-2865.29614	37.54755	871.71942	-2650.31177	41.92279	968.14288	-2656.22998	30.51993	915.46356	0.00000	0.00000	0.00000
2724	10.89200	0.00000	0.00000	0.00000	-2560.45337	637.08203	717.32916	0.00000	0.00000	0.00000	0.00000	0.00000	0.00000	0.00000	0.00000	0.00000	-2666.90894	742.90790	1011.64581	0.00000	0.00000	0.00000	-2782.93970	95.84973	867.76129	0.00000	0.00000	0.00000	0.00000	0.00000	0.00000	-2626.27148	378.36966	708.42676	-2660.50977	354.75650	690.18048	-2821.62280	236.27939	682.47931	0.00000	0.00000	0.00000	-2913.66479	235.26491	702.15796	-2809.83350	73.09192	696.52997	-2756.59106	62.88026	753.28632	-2798.66626	83.39858	792.09998	-2713.59619	28.25513	1008.24420	0.00000	0.00000	0.00000	0.00000	0.00000	0.00000	0.00000	0.00000	0.00000	-2553.02734	523.11835	742.63898	-2585.22461	510.93469	855.13800	-2757.64575	488.86621	985.66278	-2735.86401	494.51819	872.47522	0.00000	0.00000	0.00000	-2805.67114	261.60361	989.65033	0.00000	0.00000	0.00000	-2774.42749	264.35922	990.18335	-2831.76978	89.72565	936.64636	0.00000	0.00000	0.00000	-2865.23804	37.71597	871.77313	-2650.28076	41.83757	968.12421	-2656.14648	30.53090	915.41150	0.00000	0.00000	0.00000
2725	10.89600	0.00000	0.00000	0.00000	-2556.95264	638.51532	718.13861	-2813.88794	1017.77332	868.63062	0.00000	0.00000	0.00000	0.00000	0.00000	0.00000	0.00000	0.00000	0.00000	0.00000	0.00000	0.00000	-2782.81104	95.97758	867.73639	0.00000	0.00000	0.00000	0.00000	0.00000	0.00000	-2623.32300	378.45978	711.45953	-2655.43164	354.31372	692.94879	-2815.39380	235.08112	686.12158	0.00000	0.00000	0.00000	-2907.88794	232.45026	707.64032	0.00000	0.00000	0.00000	-2746.36328	62.76260	753.96655	-2788.21851	81.75053	793.81940	-2713.56567	28.24439	1008.27637	0.00000	0.00000	0.00000	0.00000	0.00000	0.00000	0.00000	0.00000	0.00000	-2549.04492	524.32928	743.60535	-2580.31860	512.14221	856.18530	-2755.81689	488.75247	986.03931	-2733.79614	494.44473	872.93463	0.00000	0.00000	0.00000	-2804.51343	261.66278	989.82104	0.00000	0.00000	0.00000	-2773.31128	264.35007	990.38019	-2831.59448	90.01054	936.62897	0.00000	0.00000	0.00000	-2865.22632	37.88321	871.77631	-2650.15405	41.82660	968.11737	-2656.10645	30.50981	915.38037	0.00000	0.00000	0.00000
2726	10.90000	0.00000	0.00000	0.00000	-2553.21948	639.67627	718.85559	-2811.33472	1017.78253	870.35162	0.00000	0.00000	0.00000	0.00000	0.00000	0.00000	-2791.82520	1007.76672	771.71570	0.00000	0.00000	0.00000	0.00000	0.00000	0.00000	0.00000	0.00000	0.00000	0.00000	0.00000	0.00000	-2618.51294	379.00912	713.06891	-2650.41577	353.76068	695.74841	-2810.18945	234.09227	690.24243	0.00000	0.00000	0.00000	-2902.12549	229.30284	713.22882	-2805.97412	70.47788	703.11841	-2735.65771	62.18720	754.88373	-2777.74170	80.15188	795.45319	-2713.52881	28.22690	1008.25818	0.00000	0.00000	0.00000	0.00000	0.00000	0.00000	0.00000	0.00000	0.00000	-2545.05542	525.44867	744.65625	-2575.48706	513.33807	857.09485	-2753.95239	488.70349	986.43726	-2732.62036	494.76767	872.73749	0.00000	0.00000	0.00000	-2803.55151	261.84830	990.03052	0.00000	0.00000	0.00000	-2769.09399	264.41217	987.18781	-2831.44287	90.34751	936.57922	0.00000	0.00000	0.00000	-2865.13110	38.02205	871.82062	-2650.13330	41.80265	968.13751	-2656.03174	30.51212	915.35651	0.00000	0.00000	0.00000
